<svg width="54" height="53" viewBox="0 0 54 53" fill="none" xmlns="http://www.w3.org/2000/svg">
<path fill-rule="evenodd" clip-rule="evenodd" d="M50.2113 0C52.2099 6.3161e-06 53.8744 1.61607 53.8751 3.6571C53.8751 3.65753 53.8751 3.65795 53.8751 3.65838L54 32.9674C54 34.9859 52.4 36.667 50.3793 36.6678C50.3788 36.6678 50.3783 36.6678 50.3778 36.6678L38.9306 36.7098C38.5857 36.7111 38.305 36.4297 38.3038 36.0814C38.3025 35.733 38.5811 35.4496 38.926 35.4483L50.3755 35.4063L50.3778 35.4063C51.6867 35.4063 52.7503 34.313 52.751 32.9685C52.751 32.9682 52.751 32.9678 52.751 32.9674L52.6261 3.66109L52.6261 3.65838C52.6261 2.33643 51.5437 1.26222 50.2126 1.26151C50.2121 1.26151 50.2117 1.26151 50.2113 1.26151L3.625 1.47176L3.6222 1.47176C2.31331 1.47176 1.24971 2.56495 1.24904 3.9094C1.24904 3.90983 1.24904 3.91025 1.24904 3.91068L1.37395 33.2197C1.37394 34.5416 2.4563 35.6158 3.78744 35.6165C3.78787 35.6165 3.78831 35.6165 3.78874 35.6165L15.236 35.5745C15.5809 35.5732 15.8615 35.8546 15.8628 36.2029C15.864 36.5513 15.5854 36.8347 15.2405 36.836L3.79101 36.878L3.78874 36.878C1.79018 36.878 0.125672 35.2621 0.124904 33.2211C0.124904 33.2206 0.124904 33.2201 0.124904 33.2197L5.80697e-06 3.91339L0 3.91068C0 1.89218 1.59998 0.211068 3.62074 0.210258C3.62123 0.210258 3.62172 0.210257 3.6222 0.210257L50.2113 0Z" fill="#344154"/>
<path fill-rule="evenodd" clip-rule="evenodd" d="M26.9529 27.0004C32.0605 26.9556 36.1747 31.0776 36.2194 36.1723L36.2195 36.1778C36.2195 41.2761 32.1472 45.3939 27.0473 45.4387C21.9397 45.4835 17.8255 41.3615 17.7808 36.2667C17.736 31.1592 21.8581 27.0451 26.9529 27.0004ZM34.968 36.1806C34.9278 31.7654 31.3667 28.2132 26.9639 28.2518C22.5474 28.2905 18.9936 31.8521 19.0323 36.2557C19.071 40.6722 22.6326 44.2259 27.0364 44.1872C31.4469 44.1486 34.9665 40.5922 34.968 36.1806Z" fill="#344154"/>
<path d="M28.2829 30.2925C29.1537 31.1187 29.6927 32.3167 29.6927 33.5973C29.6927 36.1586 27.6195 38.2241 25.0488 38.2654C23.7634 38.2654 22.561 37.7284 21.7317 36.9021C22.2293 39.5047 24.5512 41.4876 27.2878 41.4876C30.3976 41.4876 32.9268 38.9264 32.9268 35.8281C32.8854 33.019 30.8951 30.7469 28.2829 30.2925Z" fill="#59BAC3"/>
<path fill-rule="evenodd" clip-rule="evenodd" d="M17.961 26.5064C22.937 21.0582 31.0144 21.0101 36.0351 26.4121C36.2794 26.675 36.2812 27.1031 36.0389 27.3683C35.7967 27.6335 35.4023 27.6353 35.158 27.3725C30.627 22.4974 23.3385 22.5394 18.8458 27.4584C18.6036 27.7236 18.2092 27.7255 17.9648 27.4626C17.7205 27.1997 17.7188 26.7716 17.961 26.5064Z" fill="#344154"/>
<path fill-rule="evenodd" clip-rule="evenodd" d="M34.9898 37.7248C35.2265 37.4751 35.6115 37.4737 35.8498 37.7217L42.8049 44.9587L36.0741 45.0074L36.1206 52.0244L29.1567 44.8283C28.9176 44.5812 28.915 44.1778 29.1508 43.9273C29.3866 43.6768 29.7716 43.674 30.0107 43.9211L34.8841 48.957L34.8495 43.742L39.8748 43.7057L34.9928 38.6257C34.7545 38.3778 34.7532 37.9744 34.9898 37.7248Z" fill="#344154"/>
<path fill-rule="evenodd" clip-rule="evenodd" d="M18.9243 37.7201C19.1634 37.9672 19.166 38.3705 18.9302 38.621L14.1232 43.7264L19.1011 43.6902L19.1358 48.9548L23.9848 43.8403C24.2215 43.5906 24.6066 43.5893 24.8449 43.8372C25.0832 44.0851 25.0845 44.4884 24.8478 44.7381L17.9397 52.0244L17.8933 44.9731L11.1952 45.0218L18.0642 37.7263C18.3001 37.4758 18.6851 37.4731 18.9243 37.7201Z" fill="#344154"/>
<path fill-rule="evenodd" clip-rule="evenodd" d="M38.8536 15.7418C38.8556 16.0724 38.5768 16.342 38.2311 16.3438L15.7759 16.4635C15.4301 16.4654 15.1483 16.1989 15.1463 15.8682C15.1444 15.5376 15.4231 15.2681 15.7689 15.2662L38.2241 15.1465C38.5699 15.1447 38.8517 15.4112 38.8536 15.7418Z" fill="#344154"/>
<path fill-rule="evenodd" clip-rule="evenodd" d="M42.8049 10.4558C42.8068 10.7767 42.5283 11.0383 42.1829 11.04L11.8242 11.195C11.4787 11.1968 11.1971 10.938 11.1952 10.6171C11.1933 10.2962 11.4718 10.0347 11.8173 10.0329L42.176 9.87794C42.5214 9.87618 42.803 10.1349 42.8049 10.4558Z" fill="#344154"/>
</svg>
