<svg width="43" height="62" viewBox="0 0 43 62" fill="none" xmlns="http://www.w3.org/2000/svg">
<path d="M32.3515 6.73987H39.0914V13.4798L32.3515 6.73987Z" fill="#59BAC3"/>
<path d="M3.37 57.9632V50.5493L10.1099 57.9632H3.37Z" fill="#59BAC3"/>
<path fill-rule="evenodd" clip-rule="evenodd" d="M0 3.37H14.4065V4.79532H1.4217V59.9078H41.0396V4.79532H28.0548V3.37H42.4613V61.3331H0V3.37Z" fill="#344154"/>
<path fill-rule="evenodd" clip-rule="evenodd" d="M20.8937 21.5675C20.8937 21.1953 21.1955 20.8936 21.5677 20.8936H31.0035C31.3758 20.8936 31.6775 21.1953 31.6775 21.5675C31.6775 21.9398 31.3758 22.2415 31.0035 22.2415H21.5677C21.1955 22.2415 20.8937 21.9398 20.8937 21.5675Z" fill="#344154"/>
<path fill-rule="evenodd" clip-rule="evenodd" d="M20.8937 32.3512C20.8937 31.979 21.1955 31.6772 21.5677 31.6772H31.0035C31.3758 31.6772 31.6775 31.979 31.6775 32.3512C31.6775 32.7235 31.3758 33.0252 31.0035 33.0252H21.5677C21.1955 33.0252 20.8937 32.7235 20.8937 32.3512Z" fill="#344154"/>
<path fill-rule="evenodd" clip-rule="evenodd" d="M20.8937 43.1353C20.8937 42.7631 21.1955 42.4613 21.5677 42.4613H31.0035C31.3758 42.4613 31.6775 42.7631 31.6775 43.1353C31.6775 43.5075 31.3758 43.8093 31.0035 43.8093H21.5677C21.1955 43.8093 20.8937 43.5075 20.8937 43.1353Z" fill="#344154"/>
<path fill-rule="evenodd" clip-rule="evenodd" d="M13.4798 1.69253C13.4798 0.75998 14.2508 0 15.1968 0H27.2646C28.2106 0 28.9816 0.759981 28.9816 1.69253V8.84951C28.9816 9.92713 28.1125 10.7838 27.0193 10.7838C25.9982 10.7838 25.2158 10.0673 25.0656 9.10488L25.0571 9.05006V8.90095C24.792 7.15095 23.2942 5.85132 21.476 5.85132C19.6577 5.85132 18.1599 7.15094 17.8949 8.90095V9.05006L17.8863 9.10488C17.7361 10.0673 16.9538 10.7838 15.9326 10.7838H15.442C14.3489 10.7838 13.4798 9.92713 13.4798 8.84951V1.69253ZM15.1968 1.45074C15.0635 1.45074 14.9515 1.5612 14.9515 1.69253V8.84951C14.9515 9.12591 15.1617 9.33309 15.442 9.33309H15.9326C16.1735 9.33309 16.3646 9.19499 16.4232 8.92983V8.80028L16.4299 8.7515C16.7733 6.26947 18.8952 4.40058 21.476 4.40058C24.0567 4.40058 26.1786 6.26947 26.522 8.7515L26.5287 8.80028V8.92983C26.5874 9.19499 26.7784 9.33309 27.0193 9.33309C27.2997 9.33309 27.5099 9.12591 27.5099 8.84951V1.69253C27.5099 1.5612 27.3978 1.45074 27.2646 1.45074H15.1968Z" fill="#344154"/>
<path fill-rule="evenodd" clip-rule="evenodd" d="M11.5585 33.0238L14.5417 29.6558L15.5018 30.6365L11.5946 35.0477L9.43594 32.7904L10.3603 31.7709L11.5585 33.0238Z" fill="#344154"/>
<path fill-rule="evenodd" clip-rule="evenodd" d="M14.8279 19.8732L10.4374 24.2636L9.43594 23.2622L13.8264 18.8717L14.8279 19.8732Z" fill="#344154"/>
<path fill-rule="evenodd" clip-rule="evenodd" d="M10.4374 18.8717L14.8279 23.2622L13.8264 24.2636L9.43594 19.8732L10.4374 18.8717Z" fill="#344154"/>
<path fill-rule="evenodd" clip-rule="evenodd" d="M14.8279 41.4409L10.4374 45.8314L9.43594 44.8299L13.8264 40.4395L14.8279 41.4409Z" fill="#344154"/>
<path fill-rule="evenodd" clip-rule="evenodd" d="M10.4374 40.4395L14.8279 44.8299L13.8264 45.8314L9.43594 41.4409L10.4374 40.4395Z" fill="#344154"/>
</svg>
