<svg width="65" height="53" viewBox="0 0 65 53" fill="none" xmlns="http://www.w3.org/2000/svg">
<path fill-rule="evenodd" clip-rule="evenodd" d="M31.7976 14.1736L25.5185 10.7255L26.2244 9.46594L33.2356 13.316L33.4466 23.7025L24.4782 29.029L15.3038 23.9663L15.1456 13.6288L22.0533 9.52618L22.8019 10.7613L16.6133 14.437L16.7461 23.1131L24.4514 27.3651L31.9748 22.8968L31.7976 14.1736Z" fill="#344154"/>
<path fill-rule="evenodd" clip-rule="evenodd" d="M40.547 7.57275L49.7517 12.774L49.8544 21.0814L48.395 21.1003L48.3031 13.6626L40.5775 9.29721L33.0298 13.9353L33.2073 22.938L40.8885 27.3034L47.0951 23.4894L47.8461 24.7712L40.917 29.0291L31.7651 23.8278L31.5535 13.0993L40.547 7.57275Z" fill="#344154"/>
<path fill-rule="evenodd" clip-rule="evenodd" d="M27.6377 6.58795C26.4496 4.67239 23.9081 4.05373 21.9658 5.21402C21.6118 5.42549 21.1502 5.31528 20.9347 4.96788C20.7193 4.62048 20.8315 4.16744 21.1855 3.95597C23.8453 2.36707 27.3064 3.22119 28.9196 5.82218C29.1351 6.16958 29.0228 6.62262 28.6688 6.83408C28.3148 7.04555 27.8532 6.93535 27.6377 6.58795Z" fill="#344154"/>
<path fill-rule="evenodd" clip-rule="evenodd" d="M22.6956 6.64367C23.8975 5.98248 25.4587 6.31895 26.1638 7.53704L26.1675 7.54352L26.1711 7.55009C26.8412 8.76868 26.478 10.2614 25.3004 11.0052L25.2829 11.0163L25.2649 11.0262C24.0629 11.6874 22.5018 11.3509 21.7967 10.1328L21.7929 10.1264L21.7893 10.1198C21.1282 8.91762 21.4646 7.35624 22.6825 6.65103L22.689 6.64728L22.6956 6.64367ZM23.3603 7.83642C22.8553 8.13365 22.6484 8.84062 22.9819 9.45498C23.2772 9.9569 23.9771 10.1644 24.5886 9.83965C25.1248 9.48904 25.3011 8.80903 24.9786 8.21491C24.6814 7.70983 23.9745 7.50287 23.3603 7.83642Z" fill="#344154"/>
<path fill-rule="evenodd" clip-rule="evenodd" d="M53.7428 19.6719C54.0946 19.4547 54.5509 19.5721 54.762 19.9341C56.3121 22.592 55.4503 26.0666 52.8728 27.6577C52.521 27.8749 52.0647 27.7575 51.8536 27.3956C51.6425 27.0336 51.7566 26.5641 52.1084 26.3469C53.9882 25.1865 54.6123 22.6485 53.488 20.7205C53.2769 20.3586 53.391 19.8891 53.7428 19.6719Z" fill="#344154"/>
<path fill-rule="evenodd" clip-rule="evenodd" d="M48.0931 20.5685C49.4452 19.8246 51.2014 20.2032 51.9945 21.5735C52.7649 22.9045 52.344 24.641 51.0233 25.4752L51.0037 25.4876L50.9833 25.4988C49.6312 26.2427 47.875 25.8641 47.0819 24.4938L47.0776 24.4865L47.0736 24.4791C46.3299 23.1267 46.7083 21.3701 48.0784 20.5768L48.0857 20.5725L48.0931 20.5685ZM48.8408 21.9103C48.2727 22.2447 48.04 23.04 48.4151 23.7312C48.7473 24.2958 49.5346 24.5293 50.2225 24.164C50.8319 23.7647 51.0176 22.9517 50.6654 22.3432C50.3335 21.7698 49.5347 21.5335 48.8408 21.9103Z" fill="#344154"/>
<path fill-rule="evenodd" clip-rule="evenodd" d="M40.3884 30.2542L40.4291 27.7667L41.6505 27.8036L41.6098 30.291L40.3884 30.2542Z" fill="#344154"/>
<path fill-rule="evenodd" clip-rule="evenodd" d="M39.7172 30.0181C40.8985 29.3233 42.4642 29.6556 43.1858 30.8823C43.8807 32.0636 43.5484 33.6294 42.3217 34.351C41.1403 35.0458 39.5746 34.7135 38.853 33.4868C38.1581 32.3055 38.4905 30.7397 39.7172 30.0181ZM41.8959 31.6411C41.6198 31.1717 40.9907 31.0053 40.476 31.308C40.0066 31.5841 39.8401 32.2133 40.1429 32.728C40.419 33.1974 41.0482 33.3638 41.5629 33.0611C42.0322 32.785 42.1987 32.1558 41.8959 31.6411Z" fill="#344154"/>
<path fill-rule="evenodd" clip-rule="evenodd" d="M13.8657 11.99L15.7768 13.2493L15.1635 14.5143L13.2525 13.255L13.8657 11.99Z" fill="#344154"/>
<path fill-rule="evenodd" clip-rule="evenodd" d="M11.284 9.49422C12.4637 9.30848 13.5976 10.0544 13.8491 11.2456L13.8525 11.2621L13.8552 11.2787C14.0414 12.4551 13.2934 13.5857 12.0988 13.8365C10.8649 14.0955 9.74514 13.2498 9.50052 12.0912L9.49704 12.0747L9.49441 12.0581C9.30814 10.8817 10.0562 9.75109 11.2508 9.50031L11.2673 9.49684L11.284 9.49422ZM11.5076 10.7981C11.0369 10.9056 10.7333 11.3485 10.8021 11.8352C10.9176 12.3418 11.3841 12.6349 11.8256 12.5423C12.3056 12.4415 12.617 11.9941 12.5476 11.5017C12.4398 11.0324 11.9957 10.7296 11.5076 10.7981Z" fill="#344154"/>
<path d="M30.2429 17.6698L28.5991 20.8455L24.2961 23.1906L19.9931 20.8455L18.301 17.6698V17.7187L18.3493 21.9203L24.2961 25.2426L30.2429 21.9203L30.2913 17.7187L30.2429 17.6698Z" fill="#59BAC3"/>
<path d="M34.7569 18.9318L36.4423 15.7765L40.7279 13.3978L45.0136 15.7765L46.6509 18.9318L46.699 18.8347L46.6027 14.7085L40.7279 11.359L34.805 14.7085L34.7087 18.8347L34.7569 18.9318Z" fill="#59BAC3"/>
<path fill-rule="evenodd" clip-rule="evenodd" d="M7.59781 1.45821C6.63315 1.45821 5.88531 2.20114 5.88531 3.15946V34.0736C5.88531 35.0319 6.63315 35.7748 7.59781 35.7748H56.7711C57.7357 35.7748 58.4836 35.0319 58.4836 34.0736V3.15946C58.4836 2.20114 57.7357 1.45821 56.7711 1.45821H7.59781ZM4.41745 3.15946C4.41745 1.39579 5.82247 0 7.59781 0H56.7711C58.5464 0 59.9514 1.39579 59.9514 3.15946V34.0736C59.9514 35.8372 58.5464 37.233 56.7711 37.233H7.59781C5.82247 37.233 4.41745 35.8372 4.41745 34.0736V3.15946Z" fill="#344154"/>
<path fill-rule="evenodd" clip-rule="evenodd" d="M6.19933 35.3881C6.57748 35.5327 6.76676 35.956 6.62209 36.3338L1.68589 49.2226C1.669 49.2667 1.64789 49.309 1.62285 49.3491C1.20749 50.0129 1.69975 50.9138 2.51626 50.9138H62.4837C63.3003 50.9138 63.7925 50.0129 63.3771 49.3491C63.3521 49.309 63.331 49.2667 63.3141 49.2226L58.3779 36.3338C58.2332 35.956 58.4225 35.5327 58.8007 35.3881C59.1788 35.2436 59.6026 35.4327 59.7473 35.8104L64.6602 48.6383C65.6384 50.3071 64.3792 52.3784 62.4837 52.3784H2.51626C0.62076 52.3784 -0.63835 50.3071 0.339812 48.6384L5.25268 35.8104C5.39735 35.4327 5.82118 35.2436 6.19933 35.3881Z" fill="#344154"/>
<path fill-rule="evenodd" clip-rule="evenodd" d="M19.5632 47.9614C19.5632 47.6129 19.8948 47.3303 20.3038 47.3303H44.6963C45.1053 47.3303 45.4369 47.6129 45.4369 47.9614C45.4369 48.3099 45.1053 48.5925 44.6963 48.5925H20.3038C19.8948 48.5925 19.5632 48.3099 19.5632 47.9614Z" fill="#344154"/>
</svg>
