<svg width="204" height="268" viewBox="0 0 204 268" fill="none" xmlns="http://www.w3.org/2000/svg">
<path d="M77.9779 257.536V224.321C77.9779 205.197 92.9991 189.176 113.171 184.995" stroke="#59BAC3" stroke-width="8" stroke-linejoin="round"/>
<path d="M106.707 67.9226C106.707 87.3594 91.1115 103.116 71.873 103.116C52.6344 103.116 37.0387 87.3594 37.0387 67.9226" stroke="#59BAC3" stroke-width="8" stroke-linejoin="round"/>
<path d="M136.873 85.8785V42.9299C136.873 34.5195 130.12 27.7017 121.79 27.7017C113.46 27.7017 106.707 34.5195 106.707 42.9299V49.5777" stroke="#05203D" stroke-width="8" stroke-linejoin="round"/>
<path d="M47.4531 141.901C53.2048 141.901 57.8674 137.238 57.8674 131.486C57.8674 125.734 53.2048 121.072 47.4531 121.072C41.7014 121.072 37.0387 125.734 37.0387 131.486C37.0387 137.238 41.7014 141.901 47.4531 141.901Z" stroke="#05203D" stroke-width="8" stroke-linejoin="round"/>
<path d="M56.4309 61.5798V18.9617C56.4309 10.6986 63.1838 4 71.5138 4C79.8438 4 86.5967 10.6986 86.5967 18.9617V61.5798C86.5967 69.8428 79.8438 76.5414 71.5138 76.5414C63.1838 76.5414 56.4309 69.8428 56.4309 61.5798Z" stroke="#EDD767" stroke-width="8" stroke-linejoin="round"/>
<path d="M203.669 264H131.798C117.947 263.993 106.714 252.412 106.707 238.131C106.701 223.851 117.923 212.28 131.773 212.287C145.624 212.294 156.858 223.875 156.864 238.156H133.464V238.156" stroke="#05203D" stroke-width="8"/>
<path d="M23.0126 162.729C23.0263 166.56 23.04 170.39 23.0537 174.221" stroke="#59BAC3" stroke-width="8" stroke-linejoin="round"/>
<path d="M4.33859 134C4.35227 137.831 4.36596 141.661 4.37964 145.492" stroke="#EDD767" stroke-width="8" stroke-linejoin="round"/>
</svg>
