<svg width="186" height="244" viewBox="0 0 186 244" fill="none" xmlns="http://www.w3.org/2000/svg">
<path d="M115.897 235.781V205.154C115.897 187.52 102.046 172.748 83.4458 168.892" stroke="#59BAC3" stroke-width="4" stroke-linejoin="round"/>
<path d="M89.4062 60.9418C89.4062 78.8641 103.787 93.3929 121.526 93.3929C139.266 93.3929 153.646 78.8641 153.646 60.9418" stroke="#59BAC3" stroke-width="4" stroke-linejoin="round"/>
<path d="M61.591 77.4987V37.8966C61.591 30.1415 67.8177 23.8549 75.4986 23.8549C83.1795 23.8549 89.4062 30.1415 89.4062 37.8966V44.0264" stroke="#05203D" stroke-width="4" stroke-linejoin="round"/>
<path d="M144.043 129.155C138.74 129.155 134.44 124.856 134.44 119.552C134.44 114.249 138.74 109.95 144.043 109.95C149.347 109.95 153.646 114.249 153.646 119.552C153.646 124.856 149.347 129.155 144.043 129.155Z" stroke="#05203D" stroke-width="4" stroke-linejoin="round"/>
<path d="M135.765 55.0932V15.7959C135.765 8.17665 129.538 2 121.857 2C114.176 2 107.95 8.17665 107.95 15.7959V55.0932C107.95 62.7124 114.176 68.8891 121.857 68.8891C129.538 68.8891 135.765 62.7124 135.765 55.0932Z" stroke="#EDD767" stroke-width="4" stroke-linejoin="round"/>
<path d="M3.83275e-05 241.741H66.2705C79.0419 241.734 89.4002 231.055 89.4062 217.888C89.4122 204.721 79.0644 194.051 66.2931 194.058C53.5218 194.064 43.1629 204.743 43.1575 217.91H64.7347V217.91" stroke="#05203D" stroke-width="4"/>
<path d="M166.579 148.361C166.567 151.893 166.554 155.426 166.542 158.958" stroke="#59BAC3" stroke-width="4" stroke-linejoin="round"/>
<path d="M183.798 121.87C183.786 125.403 183.773 128.935 183.76 132.467" stroke="#EDD767" stroke-width="4" stroke-linejoin="round"/>
</svg>
