<svg width="187" height="244" viewBox="0 0 187 244" fill="none" xmlns="http://www.w3.org/2000/svg">
<path d="M70.2135 235.781V205.155C70.2135 187.52 84.0643 172.748 102.665 168.892" stroke="#59BAC3" stroke-width="4" stroke-linejoin="round"/>
<path d="M96.7043 60.9419C96.7043 78.8642 82.3237 93.393 64.5842 93.393C46.8448 93.393 32.4642 78.8642 32.4642 60.9419" stroke="#59BAC3" stroke-width="4" stroke-linejoin="round"/>
<path d="M124.519 77.4987V37.8967C124.519 30.1416 118.293 23.855 110.612 23.855C102.931 23.855 96.7042 30.1416 96.7042 37.8967V44.0264" stroke="#05203D" stroke-width="4" stroke-linejoin="round"/>
<path d="M42.0671 129.155C47.3707 129.155 51.67 124.856 51.67 119.553C51.67 114.249 47.3707 109.95 42.0671 109.95C36.7636 109.95 32.4642 114.249 32.4642 119.553C32.4642 124.856 36.7636 129.155 42.0671 129.155Z" stroke="#05203D" stroke-width="4" stroke-linejoin="round"/>
<path d="M50.3456 55.0937V15.7964C50.3456 8.17714 56.5723 2.00049 64.2532 2.00049C71.9342 2.00049 78.1608 8.17714 78.1608 15.7964V55.0937C78.1608 62.7129 71.9342 68.8896 64.2532 68.8896C56.5723 68.8896 50.3456 62.7129 50.3456 55.0937Z" stroke="#EDD767" stroke-width="4" stroke-linejoin="round"/>
<path d="M186.11 241.741H119.84C107.069 241.735 96.7102 231.056 96.7042 217.889C96.6982 204.721 107.046 194.052 119.817 194.058C132.589 194.065 142.948 204.743 142.953 217.911H121.376V217.911" stroke="#05203D" stroke-width="4"/>
<path d="M19.5311 148.362C19.5437 151.894 19.5563 155.426 19.5689 158.958" stroke="#59BAC3" stroke-width="4" stroke-linejoin="round"/>
<path d="M2.31221 121.871C2.32483 125.403 2.33744 128.935 2.35006 132.467" stroke="#EDD767" stroke-width="4" stroke-linejoin="round"/>
</svg>
