<svg width="283" height="372" viewBox="0 0 283 372" fill="none" xmlns="http://www.w3.org/2000/svg">
<path d="M175 358L175 311.755C175 285.127 154.086 262.822 126 257" stroke="#59BAC3" stroke-width="10" stroke-linejoin="round"/>
<path d="M135 94C135 121.062 156.714 143 183.5 143C210.286 143 232 121.062 232 94" stroke="#59BAC3" stroke-width="10" stroke-linejoin="round"/>
<path d="M93 119L93 59.2024C93 47.4925 102.402 38 114 38C125.598 38 135 47.4925 135 59.2024L135 68.4581" stroke="#05203D" stroke-width="10" stroke-linejoin="round"/>
<path d="M217.5 197C209.492 197 203 190.508 203 182.5C203 174.492 209.492 168 217.5 168C225.508 168 232 174.492 232 182.5C232 190.508 225.508 197 217.5 197Z" stroke="#05203D" stroke-width="10" stroke-linejoin="round"/>
<path d="M205 85.1688L205 25.8313C205 14.3265 195.598 5 184 5C172.402 5 163 14.3265 163 25.8313L163 85.1688C163 96.6735 172.402 106 184 106C195.598 106 205 96.6735 205 85.1688Z" stroke="#EDD767" stroke-width="10" stroke-linejoin="round"/>
<path d="M-3.36695e-06 367L100.066 367C119.35 366.99 134.991 350.865 135 330.983C135.009 311.101 119.384 294.99 100.1 295C80.8159 295.01 65.1743 311.134 65.1661 331.017L97.7468 331.017V331.017" stroke="#05203D" stroke-width="10"/>
<path d="M251.529 226C251.51 231.333 251.49 236.667 251.471 242" stroke="#59BAC3" stroke-width="10" stroke-linejoin="round"/>
<path d="M277.529 186C277.51 191.333 277.49 196.667 277.471 202" stroke="#EDD767" stroke-width="10" stroke-linejoin="round"/>
</svg>
