<svg width="134" height="98" viewBox="0 0 134 98" fill="none" xmlns="http://www.w3.org/2000/svg">
<path d="M71.813 67.5971C53.512 67.5971 38.6763 52.9128 38.6763 34.7986C38.6763 16.6843 53.512 2 71.813 2" stroke="#59BAC3" stroke-width="4" stroke-linejoin="round"/>
<path d="M54.9065 95.9996L95.3451 95.9996C103.264 95.9996 109.683 89.6413 109.683 81.7981C109.683 73.9549 103.264 67.5967 95.3451 67.5967L89.0859 67.5967" stroke="#05203D" stroke-width="4" stroke-linejoin="round"/>
<path d="M2.15826 11.8058C2.15826 17.2213 6.54845 21.6115 11.964 21.6115C17.3796 21.6115 21.7698 17.2213 21.7698 11.8058C21.7698 6.39019 17.3796 2 11.964 2C6.54845 2 2.15826 6.39019 2.15826 11.8058Z" stroke="#05203D" stroke-width="4" stroke-linejoin="round"/>
<path d="M77.7852 20.2588L117.913 20.2588C125.693 20.2588 132 26.617 132 34.4602C132 42.3034 125.693 48.6617 117.913 48.6617L77.7852 48.6617C70.005 48.6617 63.6978 42.3034 63.6978 34.4602C63.6978 26.617 70.005 20.2588 77.7852 20.2588Z" stroke="#EDD767" stroke-width="4" stroke-linejoin="round"/>
</svg>
