<svg width="202" height="149" viewBox="0 0 202 149" fill="none" xmlns="http://www.w3.org/2000/svg">
<path d="M108 102C80.9379 102 59 80.2859 59 53.5C59 26.7141 80.9379 5 108 5" stroke="#59BAC3" stroke-width="10" stroke-linejoin="round"/>
<path d="M83 144L142.798 144C154.507 144 164 134.598 164 123C164 111.402 154.507 102 142.798 102L133.542 102" stroke="#05203D" stroke-width="10" stroke-linejoin="round"/>
<path d="M5 19.5C5 27.5081 11.4919 34 19.5 34C27.5081 34 34 27.5081 34 19.5C34 11.4919 27.5081 5 19.5 5C11.4919 5 5 11.4919 5 19.5Z" stroke="#05203D" stroke-width="10" stroke-linejoin="round"/>
<path d="M116.831 32L176.169 32C187.673 32 197 41.4021 197 53C197 64.5979 187.673 74 176.169 74L116.831 74C105.326 74 96 64.5979 96 53C96 41.4021 105.327 32 116.831 32Z" stroke="#EDD767" stroke-width="10" stroke-linejoin="round"/>
</svg>
