<svg width="43" height="53" viewBox="0 0 43 53" fill="none" xmlns="http://www.w3.org/2000/svg">
<path fill-rule="evenodd" clip-rule="evenodd" d="M18.5079 1.89501C16.9572 1.89501 15.7286 3.16582 15.7286 4.67435V37.837C15.7286 38.3603 15.3044 38.7845 14.7811 38.7845C14.2578 38.7845 13.8336 38.3603 13.8336 37.837V4.67435C13.8336 2.1402 15.8897 0 18.5079 0H37.3317C39.8658 0 42.006 2.05614 42.006 4.67435V47.7542C42.006 50.2883 39.9499 52.4285 37.3317 52.4285H19.8345C19.3112 52.4285 18.887 52.0043 18.887 51.481C18.887 50.9577 19.3112 50.5335 19.8345 50.5335H37.3317C38.8825 50.5335 40.111 49.2627 40.111 47.7542V4.67435C40.111 3.12355 38.8402 1.89501 37.3317 1.89501H18.5079Z" fill="#344154"/>
<path fill-rule="evenodd" clip-rule="evenodd" d="M20.6547 7.01037C20.6547 6.48708 21.0789 6.06287 21.6022 6.06287C23.831 6.06287 25.6448 7.87675 25.6448 10.1055C25.6448 12.3343 23.831 14.1482 21.6022 14.1482C21.0789 14.1482 20.6547 13.724 20.6547 13.2007C20.6547 12.6774 21.0789 12.2532 21.6022 12.2532C22.7844 12.2532 23.7498 11.2878 23.7498 10.1055C23.7498 8.92333 22.7844 7.95787 21.6022 7.95787C21.0789 7.95787 20.6547 7.53366 20.6547 7.01037Z" fill="#344154"/>
<path fill-rule="evenodd" clip-rule="evenodd" d="M31.3308 7.01122C31.3308 6.48793 31.755 6.06372 32.2783 6.06372C34.5071 6.06372 36.321 7.8776 36.321 10.1064C36.321 12.3352 34.5071 14.1491 32.2783 14.1491C31.755 14.1491 31.3308 13.7249 31.3308 13.2016C31.3308 12.6783 31.755 12.2541 32.2783 12.2541C33.4605 12.2541 34.426 11.2886 34.426 10.1064C34.426 8.92419 33.4605 7.95873 32.2783 7.95873C31.755 7.95873 31.3308 7.53452 31.3308 7.01122Z" fill="#344154"/>
<path fill-rule="evenodd" clip-rule="evenodd" d="M20.8452 17.6868C20.8452 17.1635 21.2694 16.7393 21.7927 16.7393C24.0215 16.7393 25.8353 18.5531 25.8353 20.7819C25.8353 23.0107 24.0215 24.8246 21.7927 24.8246C21.2694 24.8246 20.8452 24.4004 20.8452 23.8771C20.8452 23.3538 21.2694 22.9296 21.7927 22.9296C22.9749 22.9296 23.9403 21.9642 23.9403 20.7819C23.9403 19.5997 22.9749 18.6343 21.7927 18.6343C21.2694 18.6343 20.8452 18.2101 20.8452 17.6868Z" fill="#344154"/>
<path fill-rule="evenodd" clip-rule="evenodd" d="M31.5835 17.6868C31.5835 17.1635 32.0077 16.7393 32.531 16.7393C34.7598 16.7393 36.5737 18.5531 36.5737 20.7819C36.5737 23.0107 34.7598 24.8246 32.531 24.8246C32.0077 24.8246 31.5835 24.4004 31.5835 23.8771C31.5835 23.3538 32.0077 22.9296 32.531 22.9296C33.7132 22.9296 34.6787 21.9642 34.6787 20.7819C34.6787 19.5997 33.7132 18.6343 32.531 18.6343C32.0077 18.6343 31.5835 18.2101 31.5835 17.6868Z" fill="#344154"/>
<path fill-rule="evenodd" clip-rule="evenodd" d="M21.0978 28.4248C21.0978 27.9015 21.522 27.4773 22.0453 27.4773C24.2741 27.4773 26.0879 29.2912 26.0879 31.52C26.0879 33.7488 24.2741 35.5627 22.0453 35.5627C21.522 35.5627 21.0978 35.1384 21.0978 34.6152C21.0978 34.0919 21.522 33.6676 22.0453 33.6676C23.2275 33.6676 24.1929 32.7022 24.1929 31.52C24.1929 30.3378 23.2275 29.3723 22.0453 29.3723C21.522 29.3723 21.0978 28.9481 21.0978 28.4248Z" fill="#344154"/>
<path fill-rule="evenodd" clip-rule="evenodd" d="M31.773 28.4248C31.773 27.9015 32.1972 27.4773 32.7205 27.4773C34.9493 27.4773 36.7632 29.2912 36.7632 31.52C36.7632 33.7488 34.9493 35.5627 32.7205 35.5627C32.1972 35.5627 31.773 35.1384 31.773 34.6152C31.773 34.0919 32.1972 33.6676 32.7205 33.6676C33.9027 33.6676 34.8682 32.7022 34.8682 31.52C34.8682 30.3378 33.9027 29.3723 32.7205 29.3723C32.1972 29.3723 31.773 28.9481 31.773 28.4248Z" fill="#344154"/>
<path fill-rule="evenodd" clip-rule="evenodd" d="M21.2873 39.1C21.2873 38.5767 21.7115 38.1525 22.2348 38.1525C24.4636 38.1525 26.2774 39.9664 26.2774 42.1951C26.2774 44.4239 24.4636 46.2378 22.2348 46.2378C21.7115 46.2378 21.2873 45.8136 21.2873 45.2903C21.2873 44.767 21.7115 44.3428 22.2348 44.3428C23.417 44.3428 24.3824 43.3774 24.3824 42.1951C24.3824 41.0129 23.417 40.0475 22.2348 40.0475C21.7115 40.0475 21.2873 39.6233 21.2873 39.1Z" fill="#344154"/>
<path fill-rule="evenodd" clip-rule="evenodd" d="M32.0256 39.1C32.0256 38.5767 32.4498 38.1525 32.9731 38.1525C35.2019 38.1525 37.0158 39.9664 37.0158 42.1951C37.0158 44.4239 35.2019 46.2378 32.9731 46.2378C32.4498 46.2378 32.0256 45.8136 32.0256 45.2903C32.0256 44.767 32.4498 44.3428 32.9731 44.3428C34.1553 44.3428 35.1208 43.3774 35.1208 42.1951C35.1208 41.0129 34.1553 40.0475 32.9731 40.0475C32.4498 40.0475 32.0256 39.6233 32.0256 39.1Z" fill="#344154"/>
<path fill-rule="evenodd" clip-rule="evenodd" d="M11.2437 41.9426C11.2437 41.4193 11.668 40.9951 12.1912 40.9951C15.2961 40.9951 17.8763 43.4956 17.8763 46.6801C17.8763 49.785 15.3758 52.3652 12.1912 52.3652C11.668 52.3652 11.2437 51.9409 11.2437 51.4177C11.2437 50.8944 11.668 50.4701 12.1912 50.4701C14.3128 50.4701 15.9813 48.7549 15.9813 46.6801C15.9813 44.5586 14.2661 42.8901 12.1912 42.8901C11.668 42.8901 11.2437 42.4659 11.2437 41.9426Z" fill="#344154"/>
<path d="M10.1699 46.4274C10.1699 48.8694 8.19024 50.8491 5.74821 50.8491C3.30618 50.8491 1.32653 48.8694 1.32653 46.4274C1.32653 43.9854 3.30618 42.0057 5.74821 42.0057C8.19024 42.0057 10.1699 43.9854 10.1699 46.4274Z" fill="#59BAC3"/>
<path fill-rule="evenodd" clip-rule="evenodd" d="M0 46.6167C0 43.5035 2.57189 40.9316 5.68502 40.9316C8.7899 40.9316 11.37 43.4321 11.37 46.6167C11.37 49.8012 8.7899 52.3017 5.68502 52.3017C2.57189 52.3017 0 49.7298 0 46.6167ZM5.68502 42.8266C3.61847 42.8266 1.89501 44.5501 1.89501 46.6167C1.89501 48.6832 3.61847 50.4067 5.68502 50.4067C7.75982 50.4067 9.47503 48.7382 9.47503 46.6167C9.47503 44.4952 7.75982 42.8266 5.68502 42.8266Z" fill="#344154"/>
</svg>
