<svg width="372" height="283" viewBox="0 0 372 283" fill="none" xmlns="http://www.w3.org/2000/svg">
<path d="M14 108L60.2449 108C86.8726 108 109.178 128.914 115 157" stroke="#59BAC3" stroke-width="10" stroke-linejoin="round"/>
<path d="M278 148C250.938 148 229 126.286 229 99.5C229 72.7141 250.938 51 278 51" stroke="#59BAC3" stroke-width="10" stroke-linejoin="round"/>
<path d="M253 190L312.798 190C324.507 190 334 180.598 334 169C334 157.402 324.507 148 312.798 148L303.542 148" stroke="#05203D" stroke-width="10" stroke-linejoin="round"/>
<path d="M175 65.5C175 73.5081 181.492 80 189.5 80C197.508 80 204 73.5081 204 65.5C204 57.4919 197.508 51 189.5 51C181.492 51 175 57.4919 175 65.5Z" stroke="#05203D" stroke-width="10" stroke-linejoin="round"/>
<path d="M286.831 78L346.169 78C357.673 78 367 87.4021 367 99C367 110.598 357.673 120 346.169 120L286.831 120C275.326 120 266 110.598 266 99C266 87.4021 275.327 78 286.831 78Z" stroke="#EDD767" stroke-width="10" stroke-linejoin="round"/>
<path d="M4.99999 283L5 182.934C5.01025 163.65 21.1346 148.009 41.017 148C60.8993 147.991 77.01 163.616 77 182.9C76.99 202.184 60.8658 217.826 40.9833 217.834L40.9833 185.253V185.253" stroke="#05203D" stroke-width="10"/>
<path d="M146 31.4714C140.667 31.4905 135.333 31.5095 130 31.5286" stroke="#59BAC3" stroke-width="10" stroke-linejoin="round"/>
<path d="M186 5.47143C180.667 5.49047 175.333 5.50952 170 5.52857" stroke="#EDD767" stroke-width="10" stroke-linejoin="round"/>
</svg>
