<svg width="244" height="187" viewBox="0 0 244 187" fill="none" xmlns="http://www.w3.org/2000/svg">
<path d="M7.96003 70.2136L38.5866 70.2136C56.2212 70.2136 70.9933 84.0644 74.8491 102.665" stroke="#59BAC3" stroke-width="4" stroke-linejoin="round"/>
<path d="M182.799 96.7044C164.877 96.7044 150.348 82.3238 150.348 64.5844C150.348 46.8449 164.877 32.4644 182.799 32.4644" stroke="#59BAC3" stroke-width="4" stroke-linejoin="round"/>
<path d="M166.242 124.52L205.844 124.52C213.6 124.52 219.886 118.293 219.886 110.612C219.886 102.931 213.6 96.7043 205.844 96.7043L199.715 96.7043" stroke="#05203D" stroke-width="4" stroke-linejoin="round"/>
<path d="M114.586 42.0672C114.586 47.3708 118.885 51.6701 124.188 51.6701C129.492 51.6701 133.791 47.3708 133.791 42.0672C133.791 36.7637 129.492 32.4644 124.188 32.4644C118.885 32.4644 114.586 36.7637 114.586 42.0672Z" stroke="#05203D" stroke-width="4" stroke-linejoin="round"/>
<path d="M188.648 50.3455L227.945 50.3455C235.564 50.3455 241.741 56.5721 241.741 64.2531C241.741 71.934 235.564 78.1607 227.945 78.1607L188.648 78.1607C181.029 78.1607 174.852 71.934 174.852 64.2531C174.852 56.5721 181.029 50.3455 188.648 50.3455Z" stroke="#EDD767" stroke-width="4" stroke-linejoin="round"/>
<path d="M2.00003 186.111L2.00004 119.84C2.00683 107.069 12.6855 96.7104 25.8529 96.7043C39.0204 96.6984 49.6899 107.046 49.6833 119.817C49.6767 132.589 38.9982 142.948 25.8306 142.953L25.8306 121.376V121.376" stroke="#05203D" stroke-width="4"/>
<path d="M95.3796 19.5312C91.8475 19.5438 88.3154 19.5564 84.7833 19.5691" stroke="#59BAC3" stroke-width="4" stroke-linejoin="round"/>
<path d="M121.87 2.31221C118.338 2.32483 114.806 2.33744 111.274 2.35006" stroke="#EDD767" stroke-width="4" stroke-linejoin="round"/>
</svg>
